<?xml version="1.0" encoding="UTF-8"?>
<svg width="248px" height="32px" viewBox="0 0 248 32" version="1.1" xmlns="http://www.w3.org/2000/svg" xmlns:xlink="http://www.w3.org/1999/xlink">
    <title>brand</title>
    <defs>
        <linearGradient x1="0%" y1="14.5429363%" x2="100%" y2="85.4570637%" id="linearGradient-1">
            <stop stop-color="#FFD287" offset="0%"></stop>
            <stop stop-color="#F1B24A" stop-opacity="0.8" offset="46.1547852%"></stop>
            <stop stop-color="#F1B24A" offset="100%"></stop>
        </linearGradient>
    </defs>
    <g id="Page-1" stroke="none" stroke-width="1" fill="none" fill-rule="evenodd">
        <g id="Artboard" transform="translate(-380.000000, -137.000000)">
            <g id="brand" transform="translate(380.000000, 137.000000)">
                <g id="brand_title" transform="translate(53.000000, 0.000000)" fill="#2E3641" fill-rule="nonzero">
                    <path d="M42.0160727,32 C42.9834097,32 43.9192031,31.9371316 44.8234529,31.8113949 C45.7277027,31.6856582 46.3901183,31.5599214 46.8106996,31.4341847 L46.8106996,31.4341847 L46.8106996,11.6306483 C46.8106996,9.49312377 46.4532055,7.68041912 45.7382173,6.19253438 C45.023229,4.70464964 44.0664066,3.51015062 42.8677498,2.60903733 C41.6690931,1.70792403 40.3022038,1.04780616 38.7670821,0.628683694 C37.2319603,0.209561231 35.6652949,0 34.067086,0 C31.838005,0 29.9348746,0.272429601 28.3576947,0.817288802 C26.7805148,1.362148 25.3610529,2.05370007 24.099309,2.89194499 C22.8796232,1.92796333 21.4391322,1.20497708 19.777836,0.722986248 C18.1165398,0.240995416 16.4237001,0 14.6993167,0 C12.3861195,0 10.1675531,0.314341847 8.04361752,0.94302554 C5.91968191,1.57170923 4.14272588,2.38899804 2.71274944,3.39489194 C1.87158682,3.98166339 1.20917126,4.61034709 0.725502756,5.28094303 C0.241834252,5.95153897 0,6.85265226 0,7.98428291 L0,7.98428291 L0,26.9705305 C0,28.0183366 0.136688925,28.8670596 0.410066775,29.5166994 C0.683444626,30.1663392 1.07248234,30.6797642 1.57717991,31.0569745 C2.08187747,31.4341847 2.7022349,31.6856582 3.43825219,31.8113949 C4.17426948,31.9371316 5.00491757,32 5.93019644,32 C6.89753345,32 7.83332686,31.9371316 8.73757668,31.8113949 C9.64182649,31.6856582 10.304242,31.5599214 10.7248234,31.4341847 L10.7248234,31.4341847 L10.7248234,9.36738703 C11.1033465,9.1578258 11.565986,8.93778651 12.1127417,8.70726916 C12.6594974,8.4767518 13.3113984,8.36149312 14.0684448,8.36149312 C15.1619562,8.36149312 16.0977496,8.64440079 16.875825,9.21021611 C17.6539004,9.77603143 18.0429381,10.6876228 18.0429381,11.9449902 L18.0429381,11.9449902 L18.0429381,26.9705305 C18.0429381,28.0183366 18.179627,28.8670596 18.4530049,29.5166994 C18.7263827,30.1663392 19.1154205,30.6797642 19.620118,31.0569745 C20.1248156,31.4341847 20.745173,31.6856582 21.4811903,31.8113949 C22.2172076,31.9371316 23.0478557,32 23.9731346,32 C24.8984134,32 25.8131778,31.9371316 26.7174276,31.8113949 C27.6216774,31.6856582 28.305122,31.5599214 28.7677615,31.4341847 L28.7677615,31.4341847 L28.7677615,10.0903733 C28.7677615,9.94368042 28.7467324,9.7865095 28.7046743,9.61886051 C29.0411393,9.32547479 29.5458369,9.04256713 30.218767,8.77013752 C30.8916971,8.49770792 31.522569,8.36149312 32.1113829,8.36149312 C33.3310687,8.36149312 34.2984057,8.64440079 35.0133939,9.21021611 C35.7283821,9.77603143 36.0858762,10.6876228 36.0858762,11.9449902 L36.0858762,11.9449902 L36.0858762,26.9705305 C36.0858762,28.0183366 36.2225652,28.8670596 36.495943,29.5166994 C36.7693209,30.1663392 37.1583586,30.6797642 37.6630561,31.0569745 C38.1677537,31.4341847 38.7881111,31.6856582 39.5241284,31.8113949 C40.2601457,31.9371316 41.0907938,32 42.0160727,32 Z" id="m"></path>
                    <path d="M65.3836943,32 C66.3812993,32 67.4501619,31.9154094 68.590282,31.7462282 C69.7304021,31.5770471 70.7565102,31.2527832 71.6686062,30.7734365 C72.8657323,30.1531055 73.4642954,29.2085106 73.4642954,27.9396518 C73.4642954,27.3757146 73.3075288,26.8399742 72.9939958,26.3324307 C72.6804628,25.8248872 72.2956723,25.4301311 71.8396242,25.1481625 C71.1840552,25.5429185 70.3360909,25.8883301 69.2957313,26.1843972 C68.2553717,26.4804642 67.1508804,26.6284977 65.9822573,26.6284977 C64.7281252,26.6284977 63.6165081,26.3958736 62.6474061,25.9306254 C61.678304,25.4653772 61.0369864,24.7675048 60.7234534,23.8370084 L60.7234534,23.8370084 L71.2838157,22.2720825 C72.2529178,22.1310982 73.0082473,21.8068343 73.5498044,21.2992908 C74.0913614,20.7917473 74.3621399,20.0586288 74.3621399,19.0999355 C74.3621399,17.8028799 74.1127386,16.6045132 73.6139361,15.5048356 C73.1151336,14.405158 72.41681,13.4605631 71.5189655,12.6710509 C70.6211209,11.8815388 69.5522583,11.2612078 68.3123777,10.810058 C67.0724971,10.3589082 65.6972273,10.1333333 64.1865682,10.1333333 C62.8469271,10.1333333 61.535789,10.3377606 60.2531539,10.7466151 C58.9705188,11.1554696 57.8303987,11.789899 56.8327936,12.6499033 C55.8351886,13.5099076 55.0299787,14.6095852 54.4171642,15.9489362 C53.8043497,17.2882871 53.4979424,18.8884591 53.4979424,20.749452 C53.4979424,22.6386417 53.8043497,24.2881582 54.4171642,25.6980013 C55.0299787,27.1078444 55.8708173,28.2780142 56.9396799,29.2085106 C58.0085425,30.1390071 59.2626746,30.8368794 60.7020762,31.3021277 C62.1414778,31.7673759 63.7020171,32 65.3836943,32 Z M60.1851852,18.9333333 C60.213342,18.4808081 60.3048516,18.0353535 60.4597141,17.5969697 C60.6145766,17.1585859 60.8468703,16.7626263 61.1565952,16.4090909 C61.4663201,16.0555556 61.8675547,15.7656566 62.3602989,15.5393939 C62.8530431,15.3131313 63.4372969,15.2 64.1130604,15.2 C65.1548625,15.2 65.9432532,15.4828283 66.4782326,16.0484848 C67.013212,16.6141414 67.322937,17.179798 67.4074074,17.7454545 L67.4074074,17.7454545 L60.1851852,18.9333333 Z" id="e"></path>
                    <path d="M94.1643873,32 C96.0651126,32 97.7440866,31.7715411 99.2013093,31.3146233 C100.658532,30.8577056 101.846485,30.3298868 102.765169,29.7311669 C104.159034,28.8488429 104.855967,27.667159 104.855967,26.1861152 L104.855967,26.1861152 L104.855967,3.78138848 C104.855967,2.99359921 104.760931,2.35548991 104.570858,1.86706056 C104.380786,1.37863122 104.095677,0.992614476 103.715532,0.70901034 C103.335387,0.425406204 102.868125,0.23633678 102.313747,0.141802068 C101.759369,0.047267356 101.133713,0 100.436781,0 C99.7081694,0 98.9953974,0.0551452486 98.2984648,0.165435746 C97.6015322,0.275726243 97.0946721,0.378138848 96.7778846,0.47267356 L96.7778846,0.47267356 L96.7778846,8.12998523 C96.3977395,7.97242738 95.9067188,7.8385032 95.3048225,7.7282127 C94.7029261,7.61792221 94.0851904,7.56277696 93.4516153,7.56277696 C91.7092838,7.56277696 90.0857476,7.80699163 88.5810067,8.29542097 C87.0762658,8.78385032 85.7615975,9.53225012 84.6370017,10.5406204 C83.5124059,11.5489906 82.6333205,12.8173314 81.9997454,14.3456425 C81.3661703,15.8739537 81.0493827,17.6779911 81.0493827,19.7577548 C81.0493827,21.648449 81.3424112,23.342196 81.9284682,24.8389956 C82.5145251,26.3357952 83.3698515,27.6198917 84.4944473,28.6912851 C85.6190431,29.7626785 86.997069,30.5819793 88.6285248,31.1491876 C90.2599807,31.7163959 92.1052682,32 94.1643873,32 Z M94.2566872,25.6 C92.6651235,25.6 91.4480453,25.1072 90.6054527,24.1216 C89.7628601,23.136 89.3415638,21.6732444 89.3415638,19.7333333 C89.3415638,17.7621333 89.7940672,16.2915556 90.6990741,15.3216 C91.6040809,14.3516444 92.899177,13.8666667 94.5843621,13.8666667 C95.4581619,13.8666667 96.2071331,14.0544 96.8312757,14.4298667 L96.8312757,14.4298667 L96.8312757,24.7552 C96.5816187,24.9742222 96.2305384,25.1697778 95.778035,25.3418667 C95.3255316,25.5139556 94.8184156,25.6 94.2566872,25.6 Z" id="d"></path>
                    <path d="M159.10567,32 C162.201451,32 164.544205,31.3961036 166.13393,30.1883109 C167.723656,28.9805181 168.518519,27.30927 168.518519,25.1745665 C168.518519,23.461186 167.953748,22.0637979 166.824206,20.9824021 C165.694664,19.9010062 163.791177,19.051338 161.113744,18.4333976 L161.113744,18.4333976 L159.816863,18.1384714 C159.035945,17.9699422 158.506036,17.7873689 158.227137,17.5907514 C157.948238,17.394134 157.808788,17.1413402 157.808788,16.8323699 C157.808788,16.3829587 158.059798,16.0529223 158.561816,15.8422608 C159.063835,15.6315992 159.775028,15.5262685 160.695395,15.5262685 C161.141634,15.5262685 161.63668,15.5684008 162.180534,15.6526654 C162.724387,15.73693 163.261268,15.8422608 163.791177,15.9686577 C164.321085,16.0950546 164.809159,16.2354956 165.255398,16.3899807 C165.701636,16.5444659 166.036315,16.6919289 166.259435,16.8323699 C166.622004,16.5233997 166.92182,16.1371869 167.158885,15.6737315 C167.395949,15.2102762 167.514481,14.6555341 167.514481,14.0095055 C167.514481,13.3353886 167.319252,12.7525583 166.928793,12.2610148 C166.538334,11.7694712 166.008425,11.3692143 165.339067,11.0602441 C164.669709,10.7512738 163.881819,10.5195461 162.975396,10.365061 C162.068974,10.2105759 161.099799,10.1333333 160.067872,10.1333333 C158.701266,10.1333333 157.453192,10.2878185 156.32365,10.5967887 C155.194108,10.9057589 154.224933,11.3411261 153.416125,11.9028902 C152.607318,12.4646542 151.979794,13.1668593 151.533556,14.0095055 C151.087317,14.8521516 150.864198,15.7931064 150.864198,16.8323699 C150.864198,18.7423678 151.456858,20.2099765 152.64218,21.2351959 C153.827502,22.2604153 155.633374,23.0117748 158.059798,23.4892742 L158.059798,23.4892742 L159.314844,23.7420681 C160.095762,23.8825091 160.65356,24.0650824 160.988239,24.2897881 C161.322918,24.5144937 161.490258,24.8234639 161.490258,25.2166988 C161.490258,25.6380218 161.260166,25.9750803 160.799982,26.2278741 C160.339799,26.480668 159.677413,26.6070649 158.812825,26.6070649 C157.446219,26.6070649 156.23998,26.4315136 155.194108,26.080411 C154.148236,25.7293085 153.220896,25.3290516 152.412088,24.8796403 C152.021629,25.1886106 151.68695,25.5748234 151.408051,26.0382787 C151.129152,26.5017341 150.989702,27.0705202 150.989702,27.7446371 C150.989702,28.4749304 151.191904,29.106915 151.596308,29.6405909 C152.000712,30.1742668 152.55851,30.616656 153.269703,30.9677585 C153.980896,31.3188611 154.838511,31.5786769 155.842549,31.7472062 C156.846586,31.9157354 157.934293,32 159.10567,32 Z" id="s"></path>
                    <path d="M134.764106,32 C137.859887,32 140.202641,31.3961036 141.792366,30.1883109 C143.382092,28.9805181 144.176955,27.30927 144.176955,25.1745665 C144.176955,23.461186 143.612184,22.0637979 142.482642,20.9824021 C141.3531,19.9010062 139.449613,19.051338 136.77218,18.4333976 L136.77218,18.4333976 L135.475299,18.1384714 C134.694381,17.9699422 134.164473,17.7873689 133.885573,17.5907514 C133.606674,17.394134 133.467224,17.1413402 133.467224,16.8323699 C133.467224,16.3829587 133.718234,16.0529223 134.220252,15.8422608 C134.722271,15.6315992 135.433464,15.5262685 136.353831,15.5262685 C136.80007,15.5262685 137.295116,15.5684008 137.83897,15.6526654 C138.382823,15.73693 138.919704,15.8422608 139.449613,15.9686577 C139.979521,16.0950546 140.467595,16.2354956 140.913834,16.3899807 C141.360073,16.5444659 141.694752,16.6919289 141.917871,16.8323699 C142.28044,16.5233997 142.580257,16.1371869 142.817321,15.6737315 C143.054385,15.2102762 143.172918,14.6555341 143.172918,14.0095055 C143.172918,13.3353886 142.977688,12.7525583 142.587229,12.2610148 C142.19677,11.7694712 141.666862,11.3692143 140.997504,11.0602441 C140.328145,10.7512738 139.540255,10.5195461 138.633833,10.365061 C137.72741,10.2105759 136.758235,10.1333333 135.726308,10.1333333 C134.359702,10.1333333 133.111628,10.2878185 131.982086,10.5967887 C130.852544,10.9057589 129.883369,11.3411261 129.074562,11.9028902 C128.265754,12.4646542 127.638231,13.1668593 127.191992,14.0095055 C126.745753,14.8521516 126.522634,15.7931064 126.522634,16.8323699 C126.522634,18.7423678 127.115295,20.2099765 128.300616,21.2351959 C129.485938,22.2604153 131.291811,23.0117748 133.718234,23.4892742 L133.718234,23.4892742 L134.97328,23.7420681 C135.754198,23.8825091 136.311997,24.0650824 136.646676,24.2897881 C136.981355,24.5144937 137.148694,24.8234639 137.148694,25.2166988 C137.148694,25.6380218 136.918602,25.9750803 136.458419,26.2278741 C135.998235,26.480668 135.335849,26.6070649 134.471262,26.6070649 C133.104655,26.6070649 131.898416,26.4315136 130.852544,26.080411 C129.806672,25.7293085 128.879332,25.3290516 128.070524,24.8796403 C127.680066,25.1886106 127.345386,25.5748234 127.066487,26.0382787 C126.787588,26.5017341 126.648138,27.0705202 126.648138,27.7446371 C126.648138,28.4749304 126.85034,29.106915 127.254744,29.6405909 C127.659148,30.1742668 128.216947,30.616656 128.92814,30.9677585 C129.639333,31.3188611 130.496948,31.5786769 131.500985,31.7472062 C132.505022,31.9157354 133.592729,32 134.764106,32 Z" id="s"></path>
                    <path d="M185.102881,32 C188.4588,32 191.06106,31.4501612 192.90966,30.3504836 C193.47846,30.0121212 193.96905,29.6103159 194.38143,29.1450677 C194.79381,28.6798195 195,28.0806361 195,27.3475177 L195,27.3475177 L195,17.873372 C195,16.5481195 194.75826,15.3990974 194.27478,14.4263056 C193.7913,13.4535139 193.10163,12.6499033 192.205761,12.0154739 C191.30991,11.3810445 190.22919,10.908747 188.96361,10.5985816 C187.69803,10.2884161 186.297361,10.1333333 184.761601,10.1333333 C183.766201,10.1333333 182.706811,10.2038255 181.583431,10.3448098 C180.460051,10.4857941 179.485981,10.711369 178.661221,11.0215345 C177.921781,11.3317 177.374311,11.7053084 177.018811,12.1423598 C176.663311,12.5794111 176.485561,13.164496 176.485561,13.8976144 C176.485561,14.4615517 176.613541,15.0043413 176.869501,15.5259832 C177.125461,16.0476252 177.438301,16.435332 177.808021,16.6891038 C178.632781,16.3507415 179.557081,16.0687728 180.580921,15.8431979 C181.604761,15.617623 182.657041,15.5048356 183.737761,15.5048356 C185.102881,15.5048356 186.148051,15.681066 186.873271,16.0335268 C187.59849,16.3859875 187.9611,16.9710724 187.9611,17.7887814 L187.9611,17.7887814 L187.9611,18.0848485 L182.372641,18.6769826 C179.926801,18.9307544 178.120861,19.5792822 176.954821,20.6225661 C175.788781,21.66585 175.205761,23.1602837 175.205761,25.1058672 C175.205761,26.2619385 175.440391,27.2770256 175.909651,28.1511283 C176.378911,29.025231 177.047251,29.744251 177.914671,30.3081883 C178.782091,30.8721255 179.820151,31.2950784 181.028851,31.5770471 C182.237551,31.8590157 183.595561,32 185.102881,32 Z M185.102881,26.6666667 C184.035544,26.6666667 183.278312,26.4874552 182.831185,26.1290323 C182.384058,25.7706093 182.160494,25.3046595 182.160494,24.7311828 C182.160494,24.1577061 182.420116,23.7275986 182.939361,23.4408602 C183.458606,23.1541219 184.122085,22.9820789 184.929799,22.9247312 L184.929799,22.9247312 L188.045267,22.6666667 L188.045267,26.1075269 C187.756798,26.2795699 187.316883,26.4157706 186.72552,26.516129 C186.134158,26.6164875 185.593278,26.6666667 185.102881,26.6666667 Z" id="a"></path>
                    <path d="M115.6893,8 C116.937586,8 117.940672,7.61481481 118.69856,6.84444444 C119.456447,6.07407407 119.835391,5.12592593 119.835391,4 C119.835391,2.87407407 119.456447,1.92592593 118.69856,1.15555556 C117.940672,0.385185185 116.937586,0 115.6893,0 C114.441015,0 113.437929,0.385185185 112.680041,1.15555556 C111.922154,1.92592593 111.54321,2.87407407 111.54321,4 C111.54321,5.12592593 111.922154,6.07407407 112.680041,6.84444444 C113.437929,7.61481481 114.441015,8 115.6893,8 Z M116.099976,32 C116.769225,32 117.430868,31.9479391 118.084907,31.8438172 C118.738945,31.7396953 119.233277,31.6578853 119.567901,31.5983871 L119.567901,31.5983871 L119.567901,13.4365591 C119.567901,12.6928315 119.469035,12.0904122 119.271302,11.6293011 C119.07357,11.16819 118.792181,10.8037634 118.427136,10.5360215 C118.062092,10.2682796 117.613391,10.0897849 117.081034,10.0005376 C116.548677,9.91129032 115.947874,9.86666667 115.278625,9.86666667 C114.609376,9.86666667 113.947733,9.9187276 113.293694,10.0228495 C112.639655,10.1269713 112.145324,10.2087814 111.8107,10.2682796 L111.8107,10.2682796 L111.8107,28.4301075 C111.8107,29.1738351 111.909566,29.7762545 112.107298,30.2373656 C112.305031,30.6984767 112.58642,31.0629032 112.951465,31.3306452 C113.316509,31.5983871 113.76521,31.7768817 114.297567,31.866129 C114.829924,31.9553763 115.430727,32 116.099976,32 Z" id="i"></path>
                </g>
                <g id="logo" fill="url(#linearGradient-1)">
                    <path d="M16.2857143,0 C25.2800659,0 32.5714286,7.163444 32.5714286,16 C32.5714286,20.097905 31.0033551,23.8359922 28.4245504,26.6666971 L35.3333333,26.6666667 C36.8060927,26.6666667 38,27.860574 38,29.3333333 C38,30.8060927 36.8060927,32 35.3333333,32 L18.952381,32 C18.6899886,32 18.4364476,31.9621026 18.1969331,31.8914827 C17.5707631,31.9629408 16.9326438,32 16.2857143,32 C7.29136265,32 0,24.836556 0,16 C0,7.163444 7.29136265,0 16.2857143,0 Z M16.2857143,5.33333333 C10.2894799,5.33333333 5.42857143,10.1089627 5.42857143,16 C5.42857143,21.8910373 10.2894799,26.6666667 16.2857143,26.6666667 C22.2819487,26.6666667 27.1428571,21.8910373 27.1428571,16 C27.1428571,10.1089627 22.2819487,5.33333333 16.2857143,5.33333333 Z" id="Combined-Shape"></path>
                </g>
            </g>
        </g>
    </g>
</svg>